<?xml version="1.0" standalone="no"?>
<!DOCTYPE svg PUBLIC "-//W3C//DTD SVG 20010904//EN"
 "http://www.w3.org/TR/2001/REC-SVG-20010904/DTD/svg10.dtd">
<svg version="1.0" xmlns="http://www.w3.org/2000/svg"
 width="512.000000pt" height="512.000000pt" viewBox="0 0 512.000000 512.000000"
 preserveAspectRatio="xMidYMid meet">
<metadata>
Created by potrace 1.14, written by Peter Selinger 2001-2017
</metadata>
<g transform="translate(0.000000,512.000000) scale(0.100000,-0.100000)"
fill="#000000" stroke="none">
<path d="M651 4458 c7 -13 27 -47 45 -76 19 -29 34 -54 34 -56 0 -2 42 -78 94
-168 51 -89 104 -183 118 -208 14 -25 58 -101 97 -170 39 -69 77 -134 83 -145
6 -11 44 -76 84 -145 l72 -125 361 -3 361 -2 0 -1360 0 -1360 560 0 560 0 0
1360 0 1360 680 2 681 3 -46 73 c-25 41 -45 77 -45 81 0 3 -11 22 -23 41 -13
19 -37 60 -54 90 -29 53 -239 422 -389 683 -41 71 -74 132 -74 138 0 5 -612 9
-1605 9 l-1606 0 12 -22z"/>
</g>
</svg>
